<svg width="165" height="32" viewBox="0 0 165 32" fill="none" xmlns="http://www.w3.org/2000/svg">
<path d="M147.373 13.1765C147.373 13.1765 150.896 12.3856 153.714 16.3402C154.91 18.0182 155.756 18.0249 156.299 18.581C156.448 18.7346 157.217 19.8161 157.327 19.9135C158.153 20.6421 158.043 21.64 158.11 22.729C158.142 23.2563 158.023 24.8494 157.446 25.1249C156.411 25.6195 156.143 26.5953 153.714 27.4132C153.714 27.4132 149.487 28.2041 147.373 25.8313C147.373 25.8313 145.26 28.9951 139.623 26.6223C138.509 26.2386 137.568 25.4679 136.973 24.4501C136.488 23.4715 135.969 22.2596 136.64 20.9395C136.777 20.4604 137.005 20.0121 137.311 19.6195C138.242 18.5744 140.33 16.6975 140.667 16.3194C142.076 14.7376 144.555 12.3857 147.373 13.1765Z" fill="#D22F27"/>
<path d="M134.678 15.5597C134.565 15.5597 134.452 15.5564 134.34 15.5513C133.881 15.549 133.431 15.4289 133.033 15.2026C132.893 15.1146 132.792 14.9777 132.748 14.8187C132.705 14.6597 132.722 14.4902 132.797 14.3434L135.251 9.54345C135.324 9.40035 135.447 9.28881 135.597 9.22954C136.342 8.92841 137.007 8.46005 137.542 7.86066C138.077 7.26128 138.467 6.54693 138.682 5.77282C138.712 5.66057 138.771 5.55824 138.853 5.47617C138.935 5.3941 139.038 5.3352 139.15 5.30543C139.262 5.27567 139.38 5.27609 139.492 5.30666C139.605 5.33722 139.707 5.39685 139.788 5.47951C140.632 6.3981 141.159 7.56358 141.29 8.80413C141.422 10.0447 141.151 11.2947 140.519 12.3698C139.895 13.3525 139.031 14.1608 138.01 14.7187C136.988 15.2767 135.842 15.566 134.678 15.5597V15.5597Z" fill="#EA5A47"/>
<path d="M137.663 21.8576C133.684 25.4454 129.346 15.9051 133.043 15.2571C133.043 15.2574 135.683 15.2574 135.683 16.5775C135.683 17.8975 134.583 19.8776 137.443 20.8676L137.663 21.8576Z" fill="#EA5A47"/>
<path d="M132.225 14.4733C132.225 14.4733 126.739 9.03378 134.533 3.89704C134.533 3.89704 137.517 2.48889 138.959 3.99803C138.959 3.99803 134.781 5.96944 135.029 8.04184C135.277 10.1142 137 12.2202 135.491 13.662C134.464 14.1393 133.355 14.4147 132.225 14.4733V14.4733Z" fill="#D22F27"/>
<path d="M153.644 12.3698C153.011 11.2947 152.741 10.0447 152.872 8.80413C153.004 7.56358 153.53 6.3981 154.374 5.47951C154.456 5.39685 154.558 5.33722 154.67 5.30666C154.782 5.27609 154.9 5.27567 155.013 5.30543C155.125 5.3352 155.228 5.3941 155.31 5.47617C155.392 5.55824 155.451 5.66057 155.481 5.77282C155.696 6.54695 156.086 7.26131 156.621 7.8607C157.156 8.46008 157.821 8.92843 158.566 9.22954C158.716 9.28881 158.839 9.40035 158.912 9.54345L161.366 14.3434C161.441 14.4902 161.458 14.6597 161.415 14.8187C161.371 14.9777 161.27 15.1146 161.13 15.2026C160.732 15.4289 160.282 15.549 159.823 15.5513C159.711 15.5564 159.598 15.5597 159.486 15.5597C158.321 15.5661 157.175 15.2768 156.153 14.7189C155.131 14.1609 154.268 13.3526 153.644 12.3698V12.3698Z" fill="#EA5A47"/>
<path d="M156.72 20.8676C159.58 19.8776 158.48 17.8975 158.48 16.5775C158.48 15.2574 161.12 15.2574 161.12 15.2571C164.817 15.9051 160.479 25.4454 156.5 21.8576L156.72 20.8676Z" fill="#EA5A47"/>
<path d="M158.672 13.662C157.162 12.2202 158.886 10.1142 159.134 8.04184C159.381 5.96944 155.203 3.99803 155.203 3.99803C156.645 2.48889 159.63 3.89704 159.63 3.89704C167.423 9.03378 161.937 14.4733 161.937 14.4733C160.807 14.4147 159.698 14.1393 158.672 13.662V13.662Z" fill="#D22F27"/>
<path fill-rule="evenodd" clip-rule="evenodd" d="M157.531 23.7809C157.856 23.9462 157.985 24.3436 157.82 24.6685C157.24 25.8068 155.943 26.8041 153.584 27.5116C153.557 27.5196 153.53 27.5259 153.503 27.5305L153.394 26.8794C153.503 27.5305 153.503 27.5305 153.503 27.5305L153.501 27.5308L153.497 27.5314L153.486 27.5333C153.476 27.5348 153.463 27.5368 153.446 27.5393C153.412 27.5443 153.364 27.5511 153.303 27.5587C153.182 27.5741 153.008 27.5933 152.795 27.6097C152.371 27.6424 151.781 27.6644 151.123 27.6205C150.009 27.5463 148.595 27.2769 147.481 26.4511C147.48 26.4522 147.478 26.4533 147.477 26.4544C147.158 26.7119 146.682 27.0194 146.026 27.2535C144.706 27.725 142.735 27.8728 139.983 26.8452C138.836 26.4978 137.842 25.769 137.166 24.7792C136.96 24.4782 137.038 24.0675 137.338 23.8619C137.639 23.6562 138.05 23.7335 138.256 24.0344C138.766 24.7806 139.517 25.3287 140.383 25.5869C140.397 25.5913 140.412 25.5961 140.426 25.6014C142.943 26.5453 144.596 26.3627 145.582 26.0104C146.082 25.832 146.43 25.6032 146.648 25.4275C146.757 25.3395 146.833 25.2647 146.879 25.2161C146.902 25.1918 146.917 25.1741 146.925 25.1648L146.931 25.1576C147.046 25.0079 147.219 24.9144 147.407 24.901C147.598 24.8875 147.786 24.9574 147.921 25.0927C148.738 25.9101 150.022 26.2241 151.211 26.3034C151.79 26.342 152.315 26.3228 152.694 26.2936C152.883 26.279 153.035 26.2621 153.138 26.2491C153.186 26.2431 153.223 26.2378 153.248 26.2341C155.409 25.5785 156.299 24.7466 156.643 24.0698C156.809 23.7449 157.206 23.6156 157.531 23.7809Z" fill="black"/>
<path fill-rule="evenodd" clip-rule="evenodd" d="M141.979 16.7858C141.979 16.7858 141.979 16.7858 141.979 16.7858L139.394 19.3709C139.137 19.6287 138.719 19.6287 138.461 19.3709C138.203 19.1132 138.203 18.6953 138.461 18.4375L141.066 15.8321C141.716 15.1823 142.591 14.3071 143.655 13.6864C144.716 13.0674 146.003 12.6788 147.479 13.0071C147.492 13.0054 147.506 13.0036 147.52 13.0019C147.634 12.9881 147.793 12.9735 147.99 12.9677C148.384 12.9561 148.933 12.9794 149.571 13.1161C150.856 13.3915 152.482 14.1238 153.908 15.9067L153.916 15.9165C154.626 16.8389 155.404 17.7071 156.242 18.5139C156.505 18.7666 156.513 19.1844 156.261 19.4471C156.008 19.7099 155.59 19.718 155.327 19.4653C154.443 18.6146 153.623 17.6991 152.874 16.7266C151.661 15.213 150.318 14.6262 149.295 14.4068C148.778 14.296 148.336 14.2781 148.029 14.2871C147.876 14.2917 147.757 14.3029 147.68 14.3123C147.641 14.3169 147.613 14.3212 147.596 14.3239L147.58 14.3266L147.581 14.3264C147.58 14.3266 147.58 14.3266 147.579 14.3268C147.579 14.3268 147.579 14.3268 147.579 14.3268C147.484 14.3453 147.387 14.3427 147.293 14.3193C146.185 14.0423 145.207 14.3092 144.32 14.8266C143.415 15.3545 142.648 16.1175 141.979 16.7858Z" fill="black"/>
<path fill-rule="evenodd" clip-rule="evenodd" d="M140.782 25.9183C140.949 26.2426 140.82 26.6404 140.496 26.8067C140.226 26.9454 139.995 27.1509 139.827 27.4038C139.658 27.6567 139.557 27.9485 139.533 28.2515C139.504 28.6148 139.186 28.8861 138.823 28.8574C138.459 28.8286 138.188 28.5108 138.217 28.1474C138.259 27.6199 138.435 27.1118 138.728 26.6716C139.022 26.2313 139.423 25.8734 139.894 25.632C140.218 25.4657 140.616 25.5939 140.782 25.9183Z" fill="black"/>
<path fill-rule="evenodd" clip-rule="evenodd" d="M143.347 26.4596C143.61 26.7128 143.617 27.1307 143.364 27.3929C143.181 27.5816 143.04 27.806 142.949 28.052C142.857 28.2979 142.818 28.5601 142.833 28.8221C142.853 29.186 142.575 29.4978 142.211 29.5184C141.847 29.539 141.536 29.2607 141.515 28.8968C141.49 28.4531 141.557 28.009 141.711 27.5924C141.866 27.1757 142.105 26.7956 142.414 26.4759C142.667 26.2137 143.085 26.2064 143.347 26.4596Z" fill="black"/>
<path fill-rule="evenodd" clip-rule="evenodd" d="M152.276 26.4596C152.538 26.2064 152.956 26.2137 153.209 26.4759C153.518 26.7956 153.757 27.1757 153.912 27.5924C154.066 28.009 154.133 28.4531 154.108 28.8968C154.088 29.2607 153.776 29.539 153.412 29.5184C153.048 29.4978 152.77 29.186 152.79 28.8221C152.805 28.5601 152.766 28.2979 152.674 28.052C152.583 27.806 152.442 27.5816 152.259 27.3929C152.006 27.1307 152.014 26.7128 152.276 26.4596Z" fill="black"/>
<path d="M144.814 12.359C145.179 12.359 145.474 11.6203 145.474 10.709C145.474 9.79767 145.179 9.05891 144.814 9.05891C144.45 9.05891 144.154 9.79767 144.154 10.709C144.154 11.6203 144.45 12.359 144.814 12.359Z" fill="black"/>
<path d="M150.096 12.359C150.46 12.359 150.756 11.6203 150.756 10.709C150.756 9.79767 150.46 9.05891 150.096 9.05891C149.731 9.05891 149.436 9.79767 149.436 10.709C149.436 11.6203 149.731 12.359 150.096 12.359Z" fill="black"/>
<path fill-rule="evenodd" clip-rule="evenodd" d="M155.058 25.6732C155.269 25.3761 155.681 25.3064 155.978 25.5175L155.596 26.0555C155.978 25.5175 155.978 25.5174 155.978 25.5175L155.979 25.5186L155.981 25.52L155.986 25.5236L156.001 25.5345C156.013 25.5434 156.029 25.5554 156.049 25.5704C156.087 25.6005 156.14 25.6428 156.201 25.696C156.322 25.801 156.485 25.9548 156.641 26.1454C156.923 26.4892 157.335 27.14 157.104 27.896C156.998 28.2446 156.629 28.441 156.28 28.3346C155.932 28.2283 155.735 27.8594 155.842 27.5107C155.868 27.425 155.841 27.2519 155.62 26.9822C155.525 26.866 155.42 26.7657 155.336 26.6933C155.295 26.6577 155.261 26.6305 155.239 26.6132C155.228 26.6045 155.22 26.5984 155.215 26.5951L155.211 26.5922C154.916 26.3806 154.847 25.9697 155.058 25.6732Z" fill="black"/>
<path fill-rule="evenodd" clip-rule="evenodd" d="M133.041 15.2571C133.041 14.5971 133.04 14.5971 133.04 14.5971L133.039 14.5971L133.036 14.5971L133.03 14.5971L133.015 14.5975C133.003 14.5978 132.989 14.5984 132.972 14.5994C132.939 14.6013 132.896 14.605 132.845 14.6118C132.743 14.6252 132.606 14.6514 132.451 14.7031C132.14 14.8068 131.739 15.02 131.431 15.451C130.807 16.3256 130.764 17.7786 131.774 20.1372C132.303 21.371 132.949 22.188 133.669 22.6804C134.397 23.1787 135.149 23.309 135.814 23.2579C136.467 23.2077 137.029 22.9842 137.417 22.7843C137.613 22.6832 137.772 22.5845 137.883 22.5097C137.939 22.4722 137.984 22.4403 138.016 22.4167C138.032 22.4049 138.045 22.3951 138.054 22.3877L138.066 22.3783L138.071 22.375L138.072 22.3737L138.073 22.3732C138.073 22.3729 138.074 22.3727 137.661 21.8573L138.074 22.3727C138.27 22.2154 138.36 21.9599 138.306 21.7141L138.086 20.7241C138.036 20.5004 137.874 20.3185 137.657 20.2435C137.016 20.0215 136.66 19.7658 136.459 19.5329C136.264 19.308 136.175 19.0613 136.145 18.7768C136.113 18.4757 136.149 18.1461 136.207 17.7637C136.215 17.7075 136.224 17.6488 136.234 17.5882C136.284 17.2734 136.341 16.908 136.341 16.5771C136.341 15.9878 136.032 15.5617 135.665 15.286C135.316 15.0242 134.888 14.8735 134.521 14.7818C134.145 14.6877 133.777 14.6423 133.508 14.62C133.373 14.6087 133.259 14.603 133.178 14.6001C133.138 14.5986 133.105 14.5979 133.082 14.5975L133.054 14.5971L133.046 14.5971L133.043 14.5971L133.042 14.5971C133.042 14.5971 133.041 14.5971 133.041 15.2571ZM133.049 15.9172L133.06 15.9173C133.075 15.9176 133.099 15.9181 133.131 15.9193C133.194 15.9215 133.287 15.9261 133.399 15.9354C133.625 15.9543 133.917 15.9915 134.201 16.0624C134.494 16.1356 134.727 16.2325 134.873 16.342C135 16.4375 135.021 16.5064 135.021 16.5771C135.021 16.7951 134.984 17.0356 134.935 17.3499C134.924 17.4184 134.913 17.4905 134.901 17.5665C134.842 17.9576 134.781 18.4324 134.832 18.915C134.885 19.4144 135.057 19.9308 135.461 20.3969C135.796 20.784 136.262 21.1033 136.874 21.3577L136.918 21.5543C136.885 21.5728 136.85 21.5917 136.812 21.6109C136.52 21.7616 136.133 21.9094 135.713 21.9417C135.306 21.9731 134.862 21.8971 134.414 21.591C133.958 21.279 133.449 20.6935 132.988 19.6172C132.019 17.3558 132.305 16.4986 132.506 16.2182C132.61 16.0717 132.746 15.9962 132.868 15.9554C132.93 15.935 132.983 15.9251 133.018 15.9204C133.033 15.9185 133.044 15.9176 133.049 15.9172Z" fill="black"/>
<path fill-rule="evenodd" clip-rule="evenodd" d="M134.853 4.47632C133.005 5.70271 131.994 6.91073 131.481 7.99804C130.967 9.08698 130.929 10.1024 131.103 10.9827C131.28 11.8729 131.677 12.6329 132.039 13.1773C132.211 13.4363 132.372 13.6417 132.492 13.7837C133.455 13.6802 134.119 13.5199 134.569 13.3305C135.059 13.1247 135.249 12.9059 135.334 12.73C135.424 12.5414 135.449 12.2837 135.383 11.894C135.321 11.5259 135.193 11.1225 135.041 10.6412C135.03 10.6046 135.018 10.5675 135.006 10.5299C134.692 9.53226 134.288 8.22489 134.689 6.90827C135.023 5.81019 135.869 4.82891 137.438 3.98005C137.096 3.93852 136.715 3.96146 136.32 4.03124C135.904 4.10459 135.523 4.22148 135.244 4.32152C135.106 4.37119 134.995 4.41585 134.92 4.44741C134.892 4.45898 134.87 4.46876 134.853 4.47632ZM132.225 14.473L131.76 14.9417C131.898 15.0785 132.089 15.1475 132.283 15.1304C133.485 15.0242 134.401 14.8331 135.081 14.5475C135.77 14.2578 136.261 13.8508 136.525 13.2989C136.782 12.7598 136.771 12.1876 136.684 11.6736C136.606 11.2103 136.451 10.7194 136.306 10.263C136.292 10.2194 136.279 10.1762 136.265 10.1333C135.935 9.08449 135.687 8.16273 135.952 7.29291C136.202 6.47087 136.982 5.51122 139.207 4.60935C139.41 4.52721 139.558 4.35005 139.604 4.13626C139.65 3.92248 139.587 3.69984 139.436 3.54174C138.473 2.53382 137.064 2.55955 136.09 2.73127C135.58 2.82132 135.124 2.96215 134.799 3.07898C134.635 3.13774 134.501 3.1913 134.407 3.23086C134.36 3.25066 134.323 3.26702 134.297 3.27885C134.284 3.28477 134.273 3.28956 134.265 3.29309L134.256 3.29743L134.253 3.29885L134.252 3.29938C134.252 3.29947 134.251 3.29977 134.533 3.89669L134.251 3.29977C134.223 3.3131 134.195 3.32842 134.169 3.3456C132.148 4.67779 130.933 6.06568 130.287 7.43456C129.638 8.81024 129.586 10.1179 129.809 11.2396C130.029 12.3513 130.517 13.2722 130.94 13.9083C131.152 14.2281 131.352 14.4813 131.501 14.6564C131.575 14.744 131.637 14.8125 131.682 14.8605C131.704 14.8845 131.722 14.9033 131.736 14.9169L131.752 14.9333L131.757 14.9385L131.759 14.9403L131.759 14.9411C131.76 14.9414 131.76 14.9417 132.225 14.473ZM132.691 14.0055C132.691 14.0055 132.691 14.0055 132.691 14.0055Z" fill="black"/>
<path fill-rule="evenodd" clip-rule="evenodd" d="M139.166 5.30156C139.4 5.24576 139.645 5.32146 139.807 5.49919C140.644 6.418 141.164 7.58048 141.293 8.81647C141.421 10.0525 141.15 11.297 140.52 12.368C140.516 12.3747 140.512 12.3812 140.508 12.3877C139.853 13.4162 138.936 14.2515 137.851 14.8074C136.772 15.3603 135.566 15.617 134.356 15.5517C133.906 15.5515 133.464 15.4386 133.069 15.2233C132.749 15.0488 132.631 14.6479 132.805 14.3278C132.98 14.0078 133.381 13.8898 133.701 14.0643C133.905 14.1758 134.135 14.2334 134.368 14.2316C134.382 14.2315 134.396 14.2318 134.411 14.2326C135.393 14.2886 136.373 14.0815 137.249 13.6326C138.122 13.1855 138.86 12.5147 139.388 11.6888C139.871 10.8629 140.078 9.90452 139.98 8.95271C139.92 8.38107 139.752 7.82977 139.489 7.32697C139.232 7.83602 138.909 8.31107 138.526 8.73927C137.855 9.4912 137.02 10.0785 136.085 10.4556C135.747 10.592 135.363 10.4285 135.226 10.0905C135.09 9.75246 135.253 9.36786 135.591 9.23146C136.338 8.93019 137.005 8.46101 137.542 7.8603C138.078 7.25958 138.468 6.54348 138.683 5.76748C138.747 5.53583 138.932 5.35736 139.166 5.30156Z" fill="black"/>
<path fill-rule="evenodd" clip-rule="evenodd" d="M159.287 16.342C159.159 16.4375 159.138 16.5064 159.138 16.5771C159.138 16.7951 159.175 17.0356 159.224 17.3499C159.235 17.4184 159.246 17.4904 159.258 17.5665C159.317 17.9576 159.378 18.4324 159.327 18.915C159.274 19.4144 159.102 19.9308 158.699 20.3969C158.363 20.784 157.897 21.1033 157.285 21.3577L157.241 21.5543C157.274 21.5728 157.31 21.5917 157.347 21.6109C157.639 21.7616 158.026 21.9094 158.446 21.9417C158.853 21.9731 159.298 21.8971 159.745 21.591C160.201 21.279 160.71 20.6935 161.171 19.6172C162.141 17.3558 161.854 16.4986 161.654 16.2182C161.549 16.0717 161.413 15.9962 161.291 15.9554C161.23 15.935 161.176 15.9251 161.141 15.9204C161.126 15.9185 161.116 15.9176 161.11 15.9172L161.099 15.9173C161.084 15.9176 161.06 15.9181 161.028 15.9193C160.965 15.9215 160.872 15.9261 160.76 15.9354C160.534 15.9543 160.242 15.9915 159.958 16.0624C159.665 16.1356 159.432 16.2325 159.287 16.342ZM161.118 15.2571C161.118 14.5971 161.118 14.5971 161.118 14.5971L161.116 14.5971L161.114 14.5971L161.105 14.5971L161.077 14.5975C161.054 14.5979 161.022 14.5986 160.981 14.6001C160.9 14.603 160.786 14.6087 160.651 14.62C160.382 14.6423 160.014 14.6877 159.638 14.7818C159.271 14.8735 158.844 15.0242 158.494 15.286C158.127 15.5617 157.818 15.9878 157.818 16.5771C157.818 16.908 157.876 17.2734 157.925 17.5882C157.935 17.6488 157.944 17.7075 157.953 17.7637C158.01 18.1461 158.046 18.4757 158.014 18.7768C157.984 19.0613 157.895 19.308 157.701 19.5329C157.499 19.7658 157.144 20.0215 156.502 20.2435C156.285 20.3185 156.123 20.5004 156.074 20.7241L155.854 21.7141C155.799 21.9599 155.889 22.2154 156.086 22.3727L156.498 21.8573C156.086 22.3727 156.086 22.3729 156.086 22.3732L156.087 22.3737L156.089 22.375L156.093 22.3783L156.105 22.3877C156.114 22.3951 156.127 22.4049 156.143 22.4167C156.175 22.4403 156.22 22.4722 156.276 22.5097C156.387 22.5845 156.546 22.6832 156.742 22.7843C157.13 22.9842 157.692 23.2077 158.345 23.2579C159.01 23.309 159.762 23.1787 160.49 22.6804C161.21 22.188 161.856 21.371 162.385 20.1372C163.396 17.7786 163.352 16.3256 162.728 15.451C162.42 15.02 162.019 14.8068 161.708 14.7031C161.553 14.6514 161.416 14.6252 161.314 14.6118C161.263 14.605 161.22 14.6013 161.187 14.5994C161.17 14.5984 161.156 14.5978 161.144 14.5975L161.129 14.5971L161.123 14.5971L161.12 14.5971L161.119 14.5971C161.119 14.5971 161.118 14.5971 161.118 15.2571Z" fill="black"/>
<path fill-rule="evenodd" clip-rule="evenodd" d="M156.724 3.98005C158.293 4.82891 159.139 5.81019 159.473 6.90827C159.874 8.22489 159.47 9.53226 159.156 10.5299C159.144 10.5675 159.132 10.6046 159.121 10.6412C158.969 11.1225 158.841 11.5259 158.779 11.894C158.713 12.2837 158.738 12.5414 158.828 12.73C158.913 12.9059 159.103 13.1247 159.593 13.3305C160.043 13.5199 160.707 13.6802 161.67 13.7837C161.79 13.6417 161.951 13.4363 162.123 13.1773C162.485 12.6329 162.882 11.8729 163.059 10.9827C163.233 10.1024 163.195 9.08698 162.681 7.99804C162.168 6.91073 161.157 5.70271 159.309 4.47632C159.292 4.46876 159.27 4.45898 159.242 4.44741C159.167 4.41585 159.056 4.37119 158.918 4.32152C158.639 4.22148 158.258 4.10459 157.842 4.03124C157.447 3.96146 157.066 3.93852 156.724 3.98005ZM159.629 3.89669L159.911 3.29977C159.939 3.3131 159.967 3.32842 159.993 3.3456C162.014 4.67779 163.229 6.06568 163.875 7.43456C164.524 8.81024 164.576 10.1179 164.353 11.2396C164.133 12.3513 163.645 13.2722 163.222 13.9083C163.01 14.2281 162.81 14.4813 162.661 14.6564C162.587 14.744 162.525 14.8125 162.48 14.8605C162.458 14.8845 162.44 14.9033 162.426 14.9169L162.41 14.9333L162.405 14.9385L162.403 14.9403L162.403 14.9411C162.402 14.9414 162.402 14.9417 161.937 14.473L162.402 14.9417C162.264 15.0785 162.073 15.1475 161.879 15.1304C160.677 15.0242 159.761 14.8331 159.081 14.5475C158.392 14.2578 157.901 13.8508 157.637 13.2989C157.38 12.7598 157.391 12.1876 157.478 11.6736C157.556 11.2103 157.711 10.7195 157.856 10.263C157.87 10.2194 157.883 10.1762 157.897 10.1333C158.227 9.08449 158.475 8.16273 158.21 7.29291C157.96 6.47087 157.18 5.51122 154.955 4.60935C154.752 4.52721 154.604 4.35005 154.558 4.13626C154.512 3.92248 154.575 3.69984 154.726 3.54174C155.689 2.53382 157.098 2.55955 158.072 2.73127C158.582 2.82132 159.038 2.96215 159.363 3.07898C159.527 3.13774 159.661 3.1913 159.755 3.23086C159.802 3.25066 159.839 3.26702 159.865 3.27885C159.878 3.28477 159.889 3.28956 159.897 3.29309L159.906 3.29743L159.909 3.29885L159.91 3.29938L159.911 3.29959C159.911 3.29969 159.911 3.29977 159.629 3.89669ZM161.471 14.0055L161.471 14.0054C161.471 14.0055 161.471 14.0055 161.471 14.0055Z" fill="black"/>
<path fill-rule="evenodd" clip-rule="evenodd" d="M154.996 5.30156C155.229 5.35736 155.414 5.53583 155.478 5.76748C155.693 6.54348 156.084 7.25958 156.62 7.8603C157.156 8.46101 157.823 8.93019 158.57 9.23146C158.908 9.36786 159.072 9.75246 158.935 10.0905C158.799 10.4285 158.414 10.592 158.076 10.4556C157.141 10.0785 156.306 9.4912 155.635 8.73927C155.253 8.31107 154.93 7.83603 154.673 7.32697C154.409 7.82978 154.241 8.38107 154.182 8.95271C154.083 9.90452 154.29 10.8629 154.774 11.6888C155.302 12.5147 156.04 13.1855 156.912 13.6326C157.788 14.0815 158.768 14.2886 159.751 14.2326C159.765 14.2318 159.779 14.2315 159.794 14.2316C160.027 14.2334 160.256 14.1758 160.461 14.0643C160.781 13.8898 161.182 14.0078 161.356 14.3278C161.531 14.6479 161.413 15.0488 161.093 15.2233C160.698 15.4386 160.255 15.5515 159.806 15.5517C158.595 15.617 157.389 15.3603 156.31 14.8074C155.225 14.2515 154.308 13.4162 153.654 12.3877C153.65 12.3812 153.646 12.3747 153.642 12.368C153.011 11.297 152.741 10.0525 152.869 8.81647C152.997 7.58048 153.518 6.418 154.354 5.49919C154.516 5.32146 154.762 5.24576 154.996 5.30156Z" fill="black"/>
<path d="M69.348 8.29477C67.3029 8.17441 68.2206 13.9538 70.6358 16.2377C70.8032 16.3961 70.7904 16.6781 70.6047 16.8147C67.3695 19.1961 67.3798 23.4876 67.6975 23.8052C68.3404 24.448 73.9904 23.8389 76.724 18.9309C76.8336 18.7341 77.1022 18.6896 77.2579 18.8524C79.3945 21.0862 81.4304 24.0224 87.1217 24.4415C87.3201 24.4561 87.4671 24.6385 87.4315 24.8341L86.9092 27.7063C86.8723 27.9089 87.0266 28.0986 87.2325 28.1011C88.5183 28.1168 91.3058 28 92.778 24.4653C95.4187 23.8052 99.3788 22.1552 100.039 18.5251L98.3871 17.1487C98.2211 17.0103 98.2307 16.7522 98.4066 16.6266L100.369 15.225C99.3787 9.94482 94.7587 8.95479 92.4487 8.29477C90.4685 2.6846 83.2139 3.99877 82.8783 4.33465C82.6535 4.55969 82.8498 7.28934 83.1565 9.28956C83.1841 9.46967 83.0622 9.6385 82.8839 9.67606C80.0261 10.2781 78.1168 12.3458 77.3361 13.3495C77.1664 13.5677 76.7844 13.5283 76.6609 13.2811C75.9578 11.8747 73.8346 8.55881 69.348 8.29477Z" fill="#92D3F5"/>
<path d="M87.2111 12.5404C87.2111 12.5404 82.0192 15.4072 86.6401 19.832Z" fill="#61B2E4"/>
<path fill-rule="evenodd" clip-rule="evenodd" d="M100.039 18.5251C99.3785 22.1552 95.4184 23.8052 92.7777 24.4653C91.3056 28 88.5181 28.1168 87.2322 28.1011C87.0263 28.0986 86.8721 27.9089 86.9089 27.7063L87.4312 24.8342C87.4668 24.6385 87.3198 24.4561 87.1214 24.4415C82.0628 24.069 79.8921 21.7078 77.9716 19.6189L77.9714 19.6187C77.7313 19.3575 77.4951 19.1006 77.2576 18.8524C77.1019 18.6896 76.8333 18.7341 76.7237 18.9309C73.9901 23.8389 68.3402 24.448 67.6972 23.8052C67.3795 23.4876 67.3692 19.1961 70.6044 16.8147C70.7901 16.6781 70.803 16.3961 70.6355 16.2377C68.2203 13.9538 67.3026 8.17441 69.3478 8.29477C73.8343 8.55881 75.9576 11.8747 76.6606 13.2811C76.7842 13.5283 77.1662 13.5677 77.3358 13.3496C78.1165 12.3458 80.0259 10.2781 82.8836 9.67606C83.0619 9.63851 83.1839 9.46967 83.1562 9.28956C82.8495 7.28934 82.6532 4.55969 82.878 4.33465C83.2137 3.99877 90.4683 2.6846 92.4485 8.29477C92.5771 8.33152 92.7129 8.36929 92.8548 8.40877L92.8549 8.40882C95.2618 9.0784 99.4336 10.2389 100.369 15.225L98.4063 16.6266C98.2304 16.7522 98.2208 17.0103 98.3869 17.1487L100.039 18.5251ZM93.4294 7.19686C92.1044 4.26159 89.4723 3.13016 87.2516 2.78093C86.0636 2.59411 84.9441 2.61767 84.0933 2.71055C83.6675 2.75703 83.2912 2.82281 82.9918 2.89578C82.8443 2.93174 82.6957 2.97421 82.5603 3.02439C82.4932 3.04924 82.4109 3.08279 82.3252 3.12692C82.2601 3.16042 82.0994 3.24637 81.9443 3.40162C81.71 3.63605 81.6185 3.89683 81.5872 3.99172C81.5452 4.11894 81.5223 4.23849 81.5085 4.32745C81.4804 4.50791 81.4688 4.70451 81.4639 4.88766C81.454 5.26226 81.4696 5.7307 81.5003 6.22777C81.5454 6.95811 81.6269 7.80667 81.7296 8.61607C79.6844 9.26182 78.1503 10.5153 77.1688 11.532C75.9822 9.74175 73.5892 7.22206 69.4253 6.97701C68.8287 6.9419 68.2673 7.13214 67.8285 7.53149C67.4233 7.90019 67.2026 8.37247 67.0795 8.79361C66.8371 9.62297 66.8636 10.6278 67.0157 11.5741C67.2682 13.1451 67.9477 15.0201 69.0273 16.417C67.6237 17.7504 66.8918 19.3851 66.5399 20.7556C66.3327 21.5628 66.2485 22.3092 66.2425 22.9005C66.2396 23.1934 66.2555 23.4741 66.2948 23.7198C66.3141 23.8409 66.3436 23.9818 66.3916 24.1237C66.4265 24.2269 66.5242 24.4991 66.764 24.7388C67.1567 25.1314 67.6779 25.2419 67.9498 25.2852C68.2956 25.3403 68.683 25.3482 69.0807 25.3222C69.8819 25.2697 70.8602 25.0703 71.8885 24.6862C73.6545 24.0263 75.6529 22.7875 77.1646 20.6933C77.9681 21.5655 78.9146 22.56 80.0878 23.4005C81.5705 24.4628 83.422 25.3031 85.942 25.6454L85.6102 27.4701C85.4292 28.4651 86.1816 29.4084 87.2161 29.421C87.9081 29.4295 89.1647 29.4092 90.4771 28.8182C91.6946 28.2699 92.8682 27.2735 93.7186 25.5793C95.0102 25.2087 96.5367 24.6181 97.8905 23.7023C99.4778 22.6287 100.924 21.0371 101.337 18.7612C101.422 18.2932 101.249 17.8155 100.884 17.511L100.217 16.9555L101.136 16.2991C101.554 16.0006 101.761 15.4866 101.666 14.9817C100.604 9.31627 95.872 7.87165 93.4294 7.19686ZM94.6171 15.8945C94.9816 15.8945 95.2771 15.1557 95.2771 14.2444C95.2771 13.3331 94.9816 12.5944 94.6171 12.5944C94.2525 12.5944 93.957 13.3331 93.957 14.2444C93.957 15.1557 94.2525 15.8945 94.6171 15.8945ZM86.9578 13.0513C87.24 12.8204 87.2816 12.4046 87.0507 12.1225C86.8199 11.8404 86.4041 11.7988 86.122 12.0296C85.4228 12.6016 84.5739 13.6767 84.2242 15.097C83.8673 16.5469 84.0438 18.3081 85.3372 20.1763C85.5447 20.476 85.9559 20.5508 86.2556 20.3433C86.5553 20.1358 86.63 19.7247 86.4225 19.425C85.3399 17.8611 85.2414 16.4872 85.506 15.4125C85.7778 14.3083 86.4469 13.4693 86.9578 13.0513Z" fill="black"/>
<path d="M34.3213 13.4719C35.6413 9.433 32.3412 9.433 32.3412 9.433C27.7211 10.1062 31.0212 14.1449 31.0212 14.1449C31.0212 14.1449 34.9813 21.5494 27.9961 21.2897C21.0109 21.03 23.1009 14.145 23.1009 14.145C27.1071 10.7138 25.741 6.74051 25.741 6.74051C23.761 0.00910311 18.4808 0.682257 18.4808 0.682257C18.4808 0.682257 13.2006 0.00910374 11.2206 6.06736C11.2206 6.06736 9.24051 12.1256 13.8607 14.145C13.8607 14.145 16.5007 21.5495 8.58049 21.5495C8.58049 21.5495 1.98029 21.5495 5.94041 12.7987C5.94041 12.7987 7.26045 8.08676 3.30033 9.433C3.30033 9.433 1.32027 10.1062 1.98029 13.4719C1.98029 13.4719 -1.31981 27.6078 11.2206 24.2421C11.2206 24.2421 21.7809 22.2227 25.741 24.2421C29.7011 26.2615 34.9813 24.9152 34.9813 18.1838L34.3213 13.4719Z" fill="#D31E66"/>
<path d="M16.5002 14.5422C16.5002 14.5422 19.1403 22.0989 11.88 24.1597C11.88 24.1597 7.91992 24.2809 7.91992 28.4026C7.91992 32.5244 11.22 31.7297 12.5401 31.0427C13.8601 30.3558 14.1901 27.7426 14.1901 27.7426C14.1901 27.7426 13.2001 26.3417 10.56 28.4026C7.91992 30.4636 8.57994 26.2206 13.2001 25.5337C17.8202 24.8467 19.8003 17.2901 18.4802 14.5422H16.5002Z" fill="#FA5395"/>
<path d="M7.33672 23.1225C7.33672 23.1225 6.01668 23.7825 4.69664 22.4625C3.3766 21.1424 2.05656 21.8024 2.05656 21.8024C2.05656 21.8024 -0.583518 22.4625 1.39654 25.1025C1.39654 25.1025 2.05656 26.4226 4.03662 25.7626C4.03662 25.7626 5.2803 25.1025 3.96026 24.4425C2.64022 23.7825 1.32018 23.1225 2.64022 23.1225C3.96026 23.1225 6.75307 26.4226 7.33672 23.1225Z" fill="#FA5395"/>
<path d="M20.2018 14.5422C20.2018 14.5422 17.5617 22.0989 24.822 24.1597C24.822 24.1597 28.0506 24.4425 29.4421 27.5945C29.4421 31.7163 26.802 31.7163 25.482 31.0293C24.1619 30.3424 22.4405 27.7426 22.4405 27.7426C22.4405 27.7426 23.7605 26.3417 26.4006 28.4026C29.0407 30.4636 28.1221 26.2206 23.5019 25.5337C18.8818 24.8467 16.9017 17.2901 18.2218 14.5422H20.2018Z" fill="#FA5395"/>
<path d="M30.3613 23.1225C30.3613 23.1225 31.6814 23.7825 33.0014 22.4625C34.3214 21.1424 35.6415 21.8024 35.6415 21.8024C35.6415 21.8024 38.2816 22.4625 36.3015 25.1025C36.3015 25.1025 35.6415 26.4226 33.6614 25.7626C33.6614 25.7626 32.4178 25.1025 33.7378 24.4425C35.0578 23.7825 36.3779 23.1225 35.0578 23.1225C33.7378 23.1225 30.945 26.4226 30.3613 23.1225Z" fill="#FA5395"/>
<path fill-rule="evenodd" clip-rule="evenodd" d="M14.4827 2.78377C16.4059 1.39919 18.2785 1.10086 19.8948 1.45903C21.5268 1.82063 22.9609 2.86613 23.9527 4.27763C25.9388 7.10408 26.0637 11.2285 22.6007 13.9387C22.4804 14.0329 22.3964 14.1659 22.3632 14.3151C22.0851 15.5644 21.9957 17.6027 22.6741 19.3335C23.018 20.211 23.5706 21.0363 24.4221 21.6201C25.271 22.2021 26.3625 22.5069 27.72 22.4416C28.7922 22.4936 30.5477 22.1153 31.7515 21.1133C32.3791 20.591 32.8827 19.8757 33.021 18.9477C33.1586 18.0248 32.9208 16.9859 32.2512 15.838C31.1027 13.8691 30.683 12.6691 30.6492 11.893C30.6333 11.5271 30.7043 11.2686 30.8194 11.0614C30.9392 10.8459 31.1303 10.6435 31.4171 10.4284C31.6207 10.2757 31.9374 10.1645 32.2958 10.1527C32.651 10.141 32.9912 10.2287 33.2471 10.4038C33.4891 10.5694 33.6881 10.8331 33.7572 11.2592C33.8292 11.7025 33.7646 12.3578 33.3818 13.2766C33.2416 13.6131 33.4007 13.9995 33.7372 14.1397C34.0737 14.2799 34.4601 14.1208 34.6003 13.7843C35.0425 12.7231 35.1842 11.8109 35.0602 11.0476C34.9335 10.267 34.5344 9.68514 33.9926 9.31442C33.4648 8.95328 32.8356 8.81413 32.2523 8.83336C31.6723 8.85248 31.0815 9.03005 30.6251 9.37236C30.2519 9.65225 29.9067 9.98619 29.6655 10.4203C29.4197 10.8628 29.3051 11.3675 29.3304 11.9504C29.3792 13.0718 29.9495 14.512 31.111 16.5031C31.6774 17.4741 31.7964 18.2096 31.7154 18.7531C31.6351 19.2914 31.3448 19.7344 30.9071 20.0987C29.9947 20.8581 28.5615 21.169 27.7598 21.1219C27.7353 21.1204 27.7108 21.1203 27.6863 21.1216C26.5523 21.1813 25.7474 20.9283 25.1686 20.5314C24.585 20.1313 24.1754 19.5465 23.9031 18.8518C23.3855 17.5312 23.4055 15.9128 23.6066 14.8239C27.5344 11.5923 27.3003 6.74563 25.0328 3.5187C23.8796 1.87761 22.1787 0.613039 20.1804 0.170246C18.1666 -0.275988 15.9138 0.126957 13.7114 1.71247C11.1368 3.56597 9.97872 6.41696 9.99889 8.98585C10.0178 11.3947 11.0936 13.72 13.2049 14.6204L13.2079 14.6333L13.2079 14.6334C13.3489 15.2326 13.5067 15.9029 13.6066 16.6012C13.727 17.4426 13.7525 18.2604 13.5823 18.9591C13.4173 19.6367 13.0727 20.1929 12.4312 20.5756C11.768 20.9713 10.7133 21.226 9.04942 21.122C7.80339 21.0441 6.97004 20.7676 6.41802 20.4169C5.87686 20.0732 5.57355 19.6384 5.41154 19.1675C5.07176 18.1797 5.33282 16.9611 5.66613 16.0723C6.16534 14.7411 6.5794 13.3869 6.65404 12.1914C6.7292 10.9875 6.46323 9.81186 5.44586 9.04365C4.27746 8.16139 2.6435 8.40285 1.68208 9.40133C0.655548 10.4674 0.486937 12.2244 1.75296 14.2147C1.9486 14.5223 2.35654 14.613 2.6641 14.4174C2.97167 14.2218 3.0624 13.8138 2.86676 13.5063C1.82369 11.8665 2.15013 10.8184 2.63297 10.3169C3.18091 9.74786 4.07063 9.65931 4.6504 10.0971C5.16879 10.4885 5.39783 11.1279 5.33656 12.1092C5.27477 13.0989 4.92095 14.3 4.43013 15.6088C4.06819 16.574 3.66923 18.1605 4.16328 19.5968C4.41819 20.3379 4.90526 21.0199 5.71027 21.5312C6.50442 22.0356 7.57303 22.3523 8.96708 22.4395C10.7773 22.5526 12.1311 22.2919 13.1076 21.7092C14.1057 21.1137 14.6318 20.2285 14.8649 19.2714C15.0928 18.3353 15.0437 17.3249 14.9133 16.4142C14.8042 15.6518 14.6304 14.9143 14.4893 14.3153L14.4891 14.3147C14.4615 14.1976 14.4352 14.0858 14.4108 13.9801C14.3591 13.7561 14.1945 13.575 13.9764 13.5023C12.3609 12.9639 11.3363 11.1873 11.3189 8.97549C11.3017 6.79248 12.2886 4.36331 14.4827 2.78377ZM15.8397 9.24035C16.2042 9.24035 16.4997 8.50159 16.4997 7.5903C16.4997 6.679 16.2042 5.94025 15.8397 5.94025C15.4752 5.94025 15.1797 6.679 15.1797 7.5903C15.1797 8.50159 15.4752 9.24035 15.8397 9.24035ZM21.121 9.24035C21.4855 9.24035 21.781 8.50159 21.781 7.5903C21.781 6.679 21.4855 5.94025 21.121 5.94025C20.7564 5.94025 20.4609 6.679 20.4609 7.5903C20.4609 8.50159 20.7564 9.24035 21.121 9.24035ZM13.2888 23.1062C12.1548 23.4375 10.2491 24.1405 8.89358 25.2944C8.20997 25.8763 7.62008 26.6118 7.37908 27.5174C7.13265 28.4435 7.2753 29.4561 7.89158 30.5239C8.66201 31.8589 10.3459 32.2481 11.7753 31.8535C13.2617 31.4432 14.6091 30.1783 14.871 28.0589C14.9157 27.6972 14.6587 27.3677 14.2969 27.323C13.9352 27.2783 13.6056 27.5353 13.5609 27.8971C13.3667 29.4691 12.4125 30.3082 11.424 30.5811C10.3785 30.8697 9.41406 30.5211 9.03489 29.8641C8.56396 29.0481 8.51209 28.393 8.65473 27.8569C8.80281 27.3004 9.1856 26.7793 9.7492 26.2996C10.8881 25.3302 12.575 24.6899 13.659 24.3733C15.548 23.8214 16.8639 22.6132 17.4221 20.8225C17.9672 19.0736 17.762 16.8587 16.8478 14.2986C16.7253 13.9553 16.3476 13.7764 16.0043 13.8989C15.661 14.0215 15.4821 14.3992 15.6047 14.7425C16.4696 17.1647 16.5879 19.0629 16.1618 20.4297C15.7488 21.7549 14.799 22.665 13.2888 23.1062ZM27.8584 25.2944C26.5028 24.1405 24.5972 23.4375 23.4631 23.1062C21.953 22.665 21.0032 21.7549 20.5901 20.4297C20.1641 19.0629 20.2823 17.1647 21.1473 14.7425C21.2698 14.3992 21.0909 14.0215 20.7476 13.8989C20.4044 13.7764 20.0267 13.9553 19.9041 14.2986C18.9899 16.8587 18.7847 19.0736 19.3299 20.8225C19.888 22.6132 21.204 23.8214 23.093 24.3733C24.177 24.6899 25.8639 25.3302 27.0028 26.2996C27.5664 26.7793 27.9491 27.3004 28.0972 27.8569C28.2399 28.393 28.188 29.0481 27.7171 29.8641C27.3379 30.5211 26.3735 30.8697 25.3279 30.5811C24.3394 30.3082 23.3853 29.4691 23.191 27.8971C23.1463 27.5353 22.8168 27.2783 22.455 27.323C22.0933 27.3677 21.8362 27.6972 21.8809 28.0589C22.1428 30.1783 23.4902 31.4432 24.9767 31.8535C26.4061 32.2481 28.0899 31.8589 28.8604 30.5239C29.4767 29.4561 29.6193 28.4435 29.3729 27.5174C29.1319 26.6118 28.542 25.8763 27.8584 25.2944ZM1.34159 23.8972C1.42239 23.3749 1.60567 23.0494 1.80826 22.8452C2.01161 22.6402 2.27621 22.5153 2.59053 22.4653C3.24613 22.361 4.04389 22.5992 4.58399 23.0043C4.64129 23.0473 4.69794 23.0901 4.75404 23.1324L4.75406 23.1324C5.23051 23.4921 5.66796 23.8223 6.1333 24.0046C6.71764 24.2336 7.30092 24.2245 8.04186 24.0393C8.3955 23.9509 8.61051 23.5925 8.5221 23.2389C8.43369 22.8853 8.07534 22.6703 7.72171 22.7587C7.14261 22.9034 6.85928 22.8713 6.61489 22.7755C6.3278 22.663 6.04333 22.4494 5.5021 22.0429L5.37603 21.9483C4.59611 21.3633 3.44477 20.9928 2.38317 21.1616C1.83888 21.2482 1.30284 21.4803 0.871154 21.9155C0.438694 22.3514 0.152516 22.949 0.0370654 23.6955C-0.0761928 24.4277 0.0750638 25.0704 0.422987 25.5913C0.762804 26.1 1.26091 26.45 1.7816 26.6722C2.79121 27.1031 4.07765 27.1306 4.94523 26.6968C5.27127 26.5337 5.40342 26.1373 5.2404 25.8113C5.07738 25.4852 4.68093 25.3531 4.35489 25.5161C3.90243 25.7423 3.02985 25.7697 2.29978 25.4581C1.95063 25.3091 1.68373 25.1022 1.52066 24.8581C1.3657 24.6261 1.2762 24.32 1.34159 23.8972ZM36.4339 22.1852C36.6365 22.3894 36.8198 22.7148 36.9006 23.2372C36.966 23.66 36.8765 23.9661 36.7215 24.1981C36.5585 24.4422 36.2916 24.6491 35.9424 24.7981C35.2123 25.1097 34.3398 25.0823 33.8873 24.8561C33.5613 24.6931 33.1648 24.8252 33.0018 25.1512C32.8388 25.4773 32.9709 25.8737 33.297 26.0367C34.1645 26.4705 35.451 26.4431 36.4606 26.0122C36.9813 25.79 37.4794 25.44 37.8192 24.9313C38.1671 24.4104 38.3184 23.7677 38.2051 23.0354C38.0897 22.289 37.8035 21.6914 37.371 21.2555C36.9393 20.8203 36.4033 20.5882 35.859 20.5016C34.7974 20.3328 33.6461 20.7033 32.8662 21.2883L32.7401 21.3829C32.1989 21.7894 31.9144 22.003 31.6273 22.1155C31.3829 22.2113 31.0996 22.2434 30.5205 22.0987C30.1668 22.0102 29.8085 22.2253 29.7201 22.5789C29.6317 22.9325 29.8467 23.2909 30.2003 23.3793C30.9413 23.5645 31.5245 23.5735 32.1089 23.3446C32.5742 23.1622 33.0117 22.832 33.4881 22.4724L33.4895 22.4714L33.4953 22.467C33.5491 22.4264 33.6033 22.3855 33.6582 22.3443C34.1983 21.9392 34.9961 21.701 35.6517 21.8053C35.966 21.8553 36.2306 21.9802 36.4339 22.1852Z" fill="black"/>
</svg>
